<?xml version="1.0" encoding="UTF-8" standalone="no"?>
<svg
   width="2048"
   height="2048"
   viewBox="0 0 2048 2048"
   version="1.1"
   id="svg24"
   sodipodi:docname="lumenscope-logo-full-dark - Copy.svg"
   inkscape:version="1.4 (86a8ad7, 2024-10-11)"
   inkscape:export-filename="lumenscope-logo-full-dark-1.svg"
   inkscape:export-xdpi="96"
   inkscape:export-ydpi="96"
   xmlns:inkscape="http://www.inkscape.org/namespaces/inkscape"
   xmlns:sodipodi="http://sodipodi.sourceforge.net/DTD/sodipodi-0.dtd"
   xmlns="http://www.w3.org/2000/svg"
   xmlns:svg="http://www.w3.org/2000/svg">
  <defs
     id="defs24" />
  <sodipodi:namedview
     id="namedview24"
     pagecolor="#ffffff"
     bordercolor="#000000"
     borderopacity="0.25"
     inkscape:showpageshadow="2"
     inkscape:pageopacity="0.0"
     inkscape:pagecheckerboard="0"
     inkscape:deskcolor="#d1d1d1"
     inkscape:zoom="0.2876074"
     inkscape:cx="996.14963"
     inkscape:cy="1017.0114"
     inkscape:window-width="1920"
     inkscape:window-height="1051"
     inkscape:window-x="-9"
     inkscape:window-y="-9"
     inkscape:window-maximized="1"
     inkscape:current-layer="svg24"
     showguides="true">
    <inkscape:page
       x="0"
       y="0"
       width="2048"
       height="2048"
       id="page2"
       margin="0"
       bleed="0" />
  </sodipodi:namedview>
  <path
     fill="#171215"
     d="M 0,0 H 2048 V 2048 H 0 Z"
     id="path1"
     sodipodi:nodetypes="ccccc" />
  <path
     fill="#f7f3ed"
     d="m 402.528,945.415 c 6.499,-0.452 13.029,-0.166 19.463,0.855 44.192,6.619 86.882,40.519 112.747,75.63 -6.168,8.8 -12.928,17.17 -20.232,25.05 -32.129,34.17 -68.027,49.66 -114.316,51.15 -60.623,-0.64 -98.462,-28.44 -133.211,-74.8 32.225,-51.06 75.481,-73.744 135.549,-77.885 z"
     id="path2" />
  <path
     fill="#171215"
     d="m 398.533,969.507 c 29.065,-2.521 54.661,19.02 57.141,48.093 2.481,29.06 -19.095,54.63 -48.166,57.07 -29.015,2.44 -54.521,-19.09 -56.996,-48.1 -2.476,-29.012 19.013,-54.547 48.021,-57.063 z"
     id="path3" />
  <path
     fill="#171215"
     d="m 356.976,969.122 0.579,0.861 c -32.44,31.807 -30.146,72.767 -0.096,105.277 -11.896,-5.18 -22.086,-9.83 -33.292,-16.37 -16.909,-10.45 -25.958,-21.74 -38.348,-36.78 22.334,-26.684 38.926,-39.076 71.157,-52.988 z"
     id="path4" />
  <path
     fill="#171215"
     d="m 451.026,972.465 c 26.181,11.966 45.323,26.523 63.386,49.325 -21.074,26.02 -30.503,35.39 -61.12,50.63 l -0.936,-2.98 c 27.746,-28.41 24.891,-68.6 -1.33,-96.975 z"
     id="path5" />
  <path
     fill="#272627"
     d="m 452.356,1069.44 0.936,2.98 c -0.624,0.26 -5.589,2.62 -6.281,1.85 0.479,-1.24 4.129,-3.83 5.345,-4.83 z"
     id="path6" />
  <path
     fill="#8fa1f3"
     d="m 320.9353,842.69712 c 16.24369,-8.30754 48.89259,-13.89447 66.86864,-14.8407 52.00761,-2.93019 103.02402,15.08148 141.66321,50.01635 36.53148,33.1369 58.38891,79.43605 60.75942,128.70313 1.03038,22.9408 -2.38555,62.2109 -18.57208,79.8104 l -13.58096,-9.5611 c 0.74757,-1.7419 1.47502,-3.4976 2.19029,-5.2487 15.57222,-38.5925 14.0639,-82.64134 -2.34438,-120.70596 -18.11409,-41.75818 -52.30982,-74.44095 -94.84495,-90.64507 -44.91833,-17.51374 -94.92614,-16.63965 -139.20638,2.43291 -45.3962,20.06283 -77.03586,54.92457 -94.84664,100.84209 -13.31945,37.81043 -14.19663,76.47253 -1.16217,114.51893 14.25782,42.4658 45.01686,77.399 85.337,96.9203 50.8971,24.4401 94.15054,18.0237 144.92553,0.4591 2.71293,5.7544 6.37436,11.0903 9.81971,16.4537 -51.46808,20.3749 -95.29352,25.8948 -149.20706,6.5638 -46.27063,-16.5931 -83.37795,-53.9792 -103.3706,-98.6363 -20.51614,-46.3008 -21.9708,-98.8192 -4.04809,-146.18553 20.11817,-52.42702 59.18399,-88.21054 109.61951,-110.89735 z"
     id="path7" />
  <path
     fill="#f7f3ed"
     d="m 549.495,1157.8 c 1.544,-0.03 7.166,-0.28 8.051,0.58 30.274,29.3 59.542,59.9 88.942,90.11 5.696,5.85 4.001,8.82 -0.394,14.45 -2.626,0.66 -7.06,1.82 -9.235,-0.23 -29.832,-28.13 -58.437,-58.07 -86.732,-87.78 -4.814,-5.05 -4.313,-11.65 -0.632,-17.13 z"
     id="path23" />
  <path
     fill="#127c48"
     d="m 496.50333,1089.9582 c 29.26497,-15.1739 65.28986,-3.6874 80.36812,25.6186 15.08178,29.3154 3.48097,65.303 -25.88093,80.2889 -29.22675,14.9248 -65.01726,3.3828 -80.02966,-25.7985 -15.01333,-29.1807 -3.59085,-65.0056 25.54247,-80.109 z"
     id="path8" />
  <path
     fill="#171215"
     d="m 541.35411,1113.9675 c 1.83078,-0.012 3.44704,0.057 5.04929,1.1023 0.9216,0.5951 1.56025,1.5414 1.765,2.6179 0.66356,3.3069 -21.72188,50.4235 -25.21917,56.1714 -7.46891,-3.1979 -15.63875,-7.1373 -23.20485,-10.5124 -4.05453,-1.837 -11.66642,-5.2804 -5.21824,-10.0706 2.16642,-1.6102 19.48682,6.9591 22.91827,8.3457 l 1.67409,0.6662 c 7.60428,-15.6948 14.6125,-32.3305 22.23561,-48.3205 z"
     id="path9" />
  <path
     fill="#171215"
     d="m 1115.97,1009.23 c 22.4,-2 28.29,6.37 34.05,26.65 l -20.52,-0.01 -33.45,0.04 c 3.5,-14.15 5.65,-20.82 19.92,-26.68 z"
     id="path16" />
  <text
     xml:space="preserve"
     style="font-size:204.465px;font-family:Sans;-inkscape-font-specification:'Sans, Normal';text-align:start;writing-mode:lr-tb;direction:ltr;text-anchor:start;fill:#ffffff;fill-opacity:1;stroke:#ffffff;stroke-width:0;stroke-linejoin:round;stroke-miterlimit:14.6"
     x="655.79572"
     y="1094.8495"
     id="text1"><tspan
       sodipodi:role="line"
       id="tspan1"
       x="655.79572"
       y="1094.8495"
       style="stroke-width:0"><tspan
         style="font-style:normal;font-variant:normal;font-weight:bold;font-stretch:normal;font-size:204.465px;font-family:'IBM Plex Sans';-inkscape-font-specification:'IBM Plex Sans, Bold';font-variant-ligatures:normal;font-variant-caps:normal;font-variant-numeric:normal;font-variant-east-asian:normal;fill:#f7f7f5;fill-opacity:1;stroke-width:0"
         id="tspan2">Lumen</tspan><tspan
         style="font-style:normal;font-variant:normal;font-weight:500;font-stretch:normal;font-size:204.465px;font-family:'IBM Plex Sans';-inkscape-font-specification:'IBM Plex Sans, Medium';font-variant-ligatures:normal;font-variant-caps:normal;font-variant-numeric:normal;font-variant-east-asian:normal;fill:#5b7fff;fill-opacity:1;stroke-width:0"
         id="tspan3">scope</tspan></tspan></text>
</svg>
