<?xml version="1.0" encoding="UTF-8" standalone="no"?>
<svg
   width="512"
   height="512"
   viewBox="0 0 512 512"
   version="1.1"
   id="svg12"
   sodipodi:docname="lumenscope-icon-source.svg"
   inkscape:version="1.4 (86a8ad7, 2024-10-11)"
   inkscape:export-filename="lumenscope-icon-512.png"
   inkscape:export-xdpi="96"
   inkscape:export-ydpi="96"
   xmlns:inkscape="http://www.inkscape.org/namespaces/inkscape"
   xmlns:sodipodi="http://sodipodi.sourceforge.net/DTD/sodipodi-0.dtd"
   xmlns="http://www.w3.org/2000/svg"
   xmlns:svg="http://www.w3.org/2000/svg">
  <defs
     id="defs12" />
  <sodipodi:namedview
     id="namedview12"
     pagecolor="#ffffff"
     bordercolor="#000000"
     borderopacity="0.25"
     inkscape:showpageshadow="2"
     inkscape:pageopacity="0.0"
     inkscape:pagecheckerboard="0"
     inkscape:deskcolor="#d1d1d1"
     inkscape:zoom="0.2876074"
     inkscape:cx="-86.92405"
     inkscape:cy="624.11468"
     inkscape:window-width="1920"
     inkscape:window-height="1051"
     inkscape:window-x="-9"
     inkscape:window-y="-9"
     inkscape:window-maximized="1"
     inkscape:current-layer="svg12">
    <inkscape:page
       x="0"
       y="0"
       width="512"
       height="512"
       id="page2"
       margin="0"
       bleed="0" />
  </sodipodi:namedview>
  <path
     fill="white"
     d="M -1058.4439,-401.4605 H 2179.5103 V 2698.8132 H -1058.4439 Z"
     id="path1"
     style="fill:#f7f7f5;fill-opacity:1;stroke-width:1" />
  <g
     id="g1">
    <path
       fill="#ffffff"
       d="m 298.46364,370.13149 c -6.44375,4.6145 -20.67639,11.07051 -28.15887,14.07024 -47.64334,19.10146 -99.22156,16.73599 -146.05936,-3.55127 C 76.895616,359.75958 39.835907,320.84274 21.283532,272.52837 3.4319111,227.22874 6.1381042,174.29865 25.44363,129.89281 45.911053,82.811425 84.130821,45.708207 131.79837,26.64505 179.17053,7.9894152 231.99032,8.7756574 278.78614,28.833414 c 29.78589,13.059404 60.26121,35.767587 79.85598,61.900183 10.16048,13.810713 18.4243,28.920903 24.5739,44.926723 19.41399,49.83048 16.85549,97.52254 -4.52258,146.21348 24.98449,20.07277 28.43464,56.85396 8.33429,81.67605 -1.56574,1.91198 -3.23873,3.72898 -5.01589,5.44793 -4.19472,3.4716 -6.41618,5.29472 -11.02762,8.37718 -8.56409,4.19166 -16.54601,7.68471 -26.25301,8.45992 -18.04129,1.43705 -32.70903,-4.14263 -46.26757,-15.70339 z"
       id="path2"
       style="stroke-width:1" />
    <path
       fill="#2f42e5"
       d="m 298.46364,370.13149 c -6.44375,4.6145 -20.67639,11.07051 -28.15887,14.07024 -47.64334,19.10146 -99.22156,16.73599 -146.05936,-3.55127 C 76.895616,359.75958 39.835907,320.84274 21.283532,272.52837 3.4319111,227.22874 6.1381042,174.29865 25.44363,129.89281 45.911053,82.811425 84.130821,45.708207 131.79837,26.64505 179.17053,7.9894152 231.99032,8.7756574 278.78614,28.833414 c 29.78589,13.059404 60.26121,35.767587 79.85598,61.900183 10.16048,13.810713 18.4243,28.920903 24.5739,44.926723 19.41399,49.83048 16.85549,97.52254 -4.52258,146.21348 -0.46267,-0.23287 -3.67996,-2.65042 -4.27745,-3.08246 -2.5248,-1.83538 -4.39082,-2.8833 -7.15769,-4.32648 5.16604,-12.78026 8.6836,-22.87027 11.48723,-36.54341 6.75629,-34.16507 3.10085,-69.5714 -10.4914,-101.63605 C 349.49585,93.02522 314.54392,58.829199 270.88388,41.018636 226.58192,23.004313 176.95643,23.221863 132.8138,41.624098 88.563928,60.457143 53.733642,96.275287 36.144613,141.0341 c -17.377301,43.32973 -16.733845,91.80435 1.787889,134.6564 18.76778,43.32605 55.935651,77.86126 99.665858,94.94656 45.17645,17.65215 92.59519,16.77582 136.84598,-3.12842 4.22536,-1.89973 11.61898,-5.41117 15.37554,-7.98499 3.1897,4.8535 4.74625,6.3886 8.64376,10.60784 z"
       id="path3"
       style="fill:#2d5bff;fill-opacity:1;stroke-width:1" />
    <path
       fill="#087d4b"
       d="m 289.81988,359.52365 c -10.72121,-15.42763 -11.96216,-38.12325 -4.78915,-55.24531 6.15879,-14.50228 17.83293,-25.96193 32.44858,-31.85109 12.42483,-5.0404 26.1856,-5.76659 39.07311,-2.05599 3.69528,1.07549 7.16381,2.6014 10.70588,4.0936 2.76687,1.44318 4.63289,2.4911 7.15769,4.32648 0.59749,0.43204 3.81478,2.84959 4.27745,3.08246 24.98449,20.07277 28.43464,56.85396 8.33429,81.67605 -1.56574,1.91198 -3.23873,3.72898 -5.01589,5.44793 -4.19472,3.4716 -6.41618,5.29472 -11.02762,8.37718 -8.56409,4.19166 -16.54601,7.68471 -26.25301,8.45992 -18.04129,1.43705 -32.70903,-4.14263 -46.26757,-15.70339 -3.89751,-4.21924 -5.45406,-5.75434 -8.64376,-10.60784 z"
       id="path4"
       style="fill:#1f7a45;fill-opacity:1;stroke-width:1" />
    <path
       fill="#ffffff"
       d="m 367.00705,305.20675 c 3.67689,0.046 6.66743,1.67605 7.53763,5.42955 1.24095,5.356 -6.63373,11.11953 -10.16661,14.44406 -4.14876,3.94653 -8.27607,7.91757 -12.37887,11.91313 -3.02424,2.91394 -6.02704,5.84626 -9.01452,8.79697 -3.7872,3.7872 -8.39863,10.29836 -14.35213,5.88915 -4.09667,-3.03343 -7.88081,-6.63066 -11.80589,-9.93067 -4.11812,-3.44096 -11.26049,-8.13206 -6.9432,-14.2786 1.05098,-1.51366 2.68413,-2.52174 4.50726,-2.77912 5.06185,-0.70474 13.35631,8.06771 17.97694,11.53931 7.73679,-7.52231 15.8137,-14.7045 23.59033,-22.19311 2.7638,-2.66268 7.46409,-7.92064 11.04906,-8.83067 z"
       id="path5"
       style="stroke-width:1" />
    <path
       fill="#1d232d"
       d="m 194.03437,149.97171 c 28.294,-1.95549 54.39902,7.04309 76.76985,24.16546 5.90141,4.51737 29.02906,24.60699 29.6143,30.75322 0.48719,5.12498 -5.94124,11.0699 -9.08499,14.60891 -20.96135,23.59554 -51.31195,40.94435 -83.14956,42.82875 -5.3318,0.57911 -10.90106,0.26964 -16.22643,-0.24206 -22.04052,-2.11421 -42.29254,-10.88973 -59.89536,-24.17771 -6.50963,-4.91417 -28.78517,-23.62894 -29.54812,-30.81788 -0.30917,-2.91118 1.31234,-5.38971 3.10483,-7.52078 22.87395,-27.19368 52.45976,-46.36807 88.41548,-49.59791 z"
       id="path6"
       style="fill:#1a1d23;fill-opacity:1;stroke-width:1" />
    <path
       fill="#ffffff"
       d="m 118.08294,206.48525 c 16.58616,-21.92593 44.83695,-38.55284 72.11459,-42.44667 36.08687,-5.15102 72.52671,14.24766 95.06913,41.93895 -2.70558,4.24834 -6.14347,7.5698 -9.74683,11.05304 -15.20395,14.92941 -34.27078,25.32276 -55.05749,30.0108 -5.86372,1.27772 -12.49438,1.92424 -18.47853,2.06213 -2.93416,0.0705 -6.00497,-0.32173 -8.72679,-0.31867 -1.39079,0.14401 -2.98319,0.0429 -4.25294,0.22674 -2.09951,0.30335 -2.10196,0.80279 -2.86369,-1.28384 -26.65747,-5.75465 -50.61825,-20.275 -68.05745,-41.24248 z"
       id="path7"
       style="stroke-width:1" />
    <path
       fill="#242530"
       d="m 186.14039,247.72773 c 2.38508,0.26044 4.75912,0.61281 7.11663,1.0571 -1.39079,0.14401 -2.98319,0.0429 -4.25294,0.22674 -2.09951,0.30335 -2.10196,0.80279 -2.86369,-1.28384 z"
       id="path8"
       style="stroke-width:1" />
    <path
       fill="#1d232d"
       d="m 198.17578,182.01675 c 13.22456,-2.11881 25.67023,6.86231 27.82672,20.08104 2.1565,13.21843 -6.78907,25.68953 -20.00137,27.88403 -13.26593,2.20307 -25.79862,-6.78663 -27.964,-20.05868 -2.16538,-13.27205 6.86047,-25.77931 20.13865,-27.90639 z"
       id="path9"
       style="fill:#1a1d23;fill-opacity:1;stroke-width:1" />
    <path
       fill="#ffffff"
       d="m 199.4342,195.74627 c 5.69918,-1.26087 11.34566,2.32134 12.63288,8.0144 1.28722,5.69336 -2.26864,11.35608 -7.95588,12.66996 -5.72461,1.32215 -11.43268,-2.26221 -12.72848,-7.99295 -1.2958,-5.73044 2.31522,-11.42197 8.05148,-12.69141 z"
       id="path10"
       style="stroke-width:1" />
    <path
       fill="#1d232d"
       d="m 370.98422,377.37496 c 4.61144,-3.08246 6.8329,-4.90558 11.02762,-8.37718 l 79.92952,79.31364 24.5739,24.47278 c 4.58999,4.54403 9.17384,8.9992 13.65046,13.65966 3.3184,3.45015 3.56965,7.99418 -0.48412,11.03374 -2.41143,1.53817 -4.24681,1.82006 -6.82983,0.38914 -3.21728,-1.59945 -25.30009,-24.53407 -29.92072,-29.13018 z"
       id="path11"
       style="fill:#1a1d23;fill-opacity:1;stroke-width:1" />
    <path
       fill="#242530"
       d="m 492.85177,497.86674 c 0.53008,-0.046 2.17243,0.0337 2.62285,-0.19304 0.095,-0.0919 0.18691,-0.18384 0.28189,-0.27576 1.28079,0.37075 2.9262,0.24512 3.92509,0.0797 -2.41143,1.53817 -4.24681,1.82006 -6.82983,0.38914 z"
       id="path12"
       style="stroke-width:1" />
  </g>
</svg>
