<?xml version="1.0" encoding="UTF-8" standalone="no"?>
<svg
   width="2048"
   height="2048"
   viewBox="0 0 2048 2048"
   version="1.1"
   id="svg12"
   sodipodi:docname="lumenscope-icon-source - Copy.svg"
   xmlns:inkscape="http://www.inkscape.org/namespaces/inkscape"
   xmlns:sodipodi="http://sodipodi.sourceforge.net/DTD/sodipodi-0.dtd"
   xmlns="http://www.w3.org/2000/svg"
   xmlns:svg="http://www.w3.org/2000/svg">
  <defs
     id="defs12" />
  <sodipodi:namedview
     id="namedview12"
     pagecolor="#ffffff"
     bordercolor="#000000"
     borderopacity="0.25"
     inkscape:showpageshadow="2"
     inkscape:pageopacity="0.0"
     inkscape:pagecheckerboard="0"
     inkscape:deskcolor="#d1d1d1">
    <inkscape:page
       x="0"
       y="0"
       width="2048"
       height="2048"
       id="page2"
       margin="0"
       bleed="0" />
  </sodipodi:namedview>
  <path
     fill="#ffffff"
     d="M 0,0 H 2048 V 2048 H 0 Z"
     id="path1" />
  <path
     fill="#ffffff"
     d="m 1173.39,1417.03 c -21.03,15.06 -67.48,36.13 -91.9,45.92 C 926,1525.29 757.668,1517.57 604.807,1451.36 450.275,1383.18 329.326,1256.17 268.778,1098.49 210.517,950.649 219.349,777.905 282.355,632.981 349.153,479.325 473.888,358.234 629.457,296.019 c 154.605,-60.885 326.989,-58.319 479.713,7.142 97.21,42.621 196.67,116.732 260.62,202.019 33.16,45.073 60.13,94.387 80.2,146.624 63.36,162.628 55.01,318.277 -14.76,477.186 81.54,65.51 92.8,185.55 27.2,266.56 -5.11,6.24 -10.57,12.17 -16.37,17.78 -13.69,11.33 -20.94,17.28 -35.99,27.34 -27.95,13.68 -54,25.08 -85.68,27.61 -58.88,4.69 -106.75,-13.52 -151,-51.25 z"
     id="path2" />
  <path
     fill="#2f42e5"
     d="m 1173.39,1417.03 c -21.03,15.06 -67.48,36.13 -91.9,45.92 C 926,1525.29 757.668,1517.57 604.807,1451.36 450.275,1383.18 329.326,1256.17 268.778,1098.49 210.517,950.649 219.349,777.905 282.355,632.981 349.153,479.325 473.888,358.234 629.457,296.019 c 154.605,-60.885 326.989,-58.319 479.713,7.142 97.21,42.621 196.67,116.732 260.62,202.019 33.16,45.073 60.13,94.387 80.2,146.624 63.36,162.628 55.01,318.277 -14.76,477.186 -1.51,-0.76 -12.01,-8.65 -13.96,-10.06 -8.24,-5.99 -14.33,-9.41 -23.36,-14.12 16.86,-41.71 28.34,-74.64 37.49,-119.264 22.05,-111.502 10.12,-227.055 -34.24,-331.702 C 1339.94,512.659 1225.87,401.056 1083.38,342.929 938.795,284.137 776.836,284.847 632.771,344.905 488.356,406.369 374.683,523.266 317.279,669.342 c -56.713,141.412 -54.613,299.615 5.835,439.468 61.251,141.4 182.553,254.11 325.272,309.87 147.439,57.61 302.196,54.75 446.614,-10.21 13.79,-6.2 37.92,-17.66 50.18,-26.06 10.41,15.84 15.49,20.85 28.21,34.62 z"
     id="path3" />
  <path
     fill="#087d4b"
     d="m 1145.18,1382.41 c -34.99,-50.35 -39.04,-124.42 -15.63,-180.3 20.1,-47.33 58.2,-84.73 105.9,-103.95 40.55,-16.45 85.46,-18.82 127.52,-6.71 12.06,3.51 23.38,8.49 34.94,13.36 9.03,4.71 15.12,8.13 23.36,14.12 1.95,1.41 12.45,9.3 13.96,10.06 81.54,65.51 92.8,185.55 27.2,266.56 -5.11,6.24 -10.57,12.17 -16.37,17.78 -13.69,11.33 -20.94,17.28 -35.99,27.34 -27.95,13.68 -54,25.08 -85.68,27.61 -58.88,4.69 -106.75,-13.52 -151,-51.25 -12.72,-13.77 -17.8,-18.78 -28.21,-34.62 z"
     id="path4" />
  <path
     fill="#ffffff"
     d="m 1397.09,1205.14 c 12,0.15 21.76,5.47 24.6,17.72 4.05,17.48 -21.65,36.29 -33.18,47.14 -13.54,12.88 -27.01,25.84 -40.4,38.88 -9.87,9.51 -19.67,19.08 -29.42,28.71 -12.36,12.36 -27.41,33.61 -46.84,19.22 -13.37,-9.9 -25.72,-21.64 -38.53,-32.41 -13.44,-11.23 -36.75,-26.54 -22.66,-46.6 3.43,-4.94 8.76,-8.23 14.71,-9.07 16.52,-2.3 43.59,26.33 58.67,37.66 25.25,-24.55 51.61,-47.99 76.99,-72.43 9.02,-8.69 24.36,-25.85 36.06,-28.82 z"
     id="path5" />
  <path
     fill="#1d232d"
     d="m 832.572,698.511 c 92.341,-6.382 177.538,22.986 250.548,78.867 19.26,14.743 94.74,80.308 96.65,100.367 1.59,16.726 -19.39,36.128 -29.65,47.678 -68.41,77.007 -167.463,133.627 -271.369,139.777 -17.401,1.89 -35.577,0.88 -52.957,-0.79 -71.932,-6.9 -138.027,-35.54 -195.476,-78.907 -21.245,-16.038 -93.944,-77.116 -96.434,-100.578 -1.009,-9.501 4.283,-17.59 10.133,-24.545 74.652,-88.75 171.209,-151.328 288.555,-161.869 z"
     id="path6" />
  <path
     fill="#ffffff"
     d="m 584.695,882.95 c 54.131,-71.558 146.331,-125.822 235.355,-138.53 117.774,-16.811 236.7,46.499 310.27,136.873 -8.83,13.865 -20.05,24.705 -31.81,36.073 -49.62,48.724 -111.847,82.644 -179.687,97.944 -19.137,4.17 -40.777,6.28 -60.307,6.73 -9.576,0.23 -19.598,-1.05 -28.481,-1.04 -4.539,0.47 -9.736,0.14 -13.88,0.74 -6.852,0.99 -6.86,2.62 -9.346,-4.19 -87,-18.781 -165.199,-66.17 -222.114,-134.6 z"
     id="path7" />
  <path
     fill="#242530"
     d="m 806.809,1017.55 c 7.784,0.85 15.532,2 23.226,3.45 -4.539,0.47 -9.736,0.14 -13.88,0.74 -6.852,0.99 -6.86,2.62 -9.346,-4.19 z"
     id="path8" />
  <path
     fill="#1d232d"
     d="m 846.088,803.094 c 43.16,-6.915 83.778,22.396 90.816,65.537 7.038,43.14 -22.157,83.841 -65.277,91.003 -43.295,7.19 -84.197,-22.149 -91.264,-65.464 -7.067,-43.315 22.39,-84.134 65.725,-91.076 z"
     id="path9" />
  <path
     fill="#ffffff"
     d="m 850.195,847.902 c 18.6,-4.115 37.028,7.576 41.229,26.156 4.201,18.581 -7.404,37.062 -25.965,41.35 -18.683,4.315 -37.312,-7.383 -41.541,-26.086 -4.229,-18.702 7.556,-37.277 26.277,-41.42 z"
     id="path10" />
  <path
     fill="#1d232d"
     d="m 1410.07,1440.67 c 15.05,-10.06 22.3,-16.01 35.99,-27.34 l 260.86,258.85 80.2,79.87 c 14.98,14.83 29.94,29.37 44.55,44.58 10.83,11.26 11.65,26.09 -1.58,36.01 -7.87,5.02 -13.86,5.94 -22.29,1.27 -10.5,-5.22 -82.57,-80.07 -97.65,-95.07 z"
     id="path11" />
  <path
     fill="#242530"
     d="m 1807.8,1833.91 c 1.73,-0.15 7.09,0.11 8.56,-0.63 0.31,-0.3 0.61,-0.6 0.92,-0.9 4.18,1.21 9.55,0.8 12.81,0.26 -7.87,5.02 -13.86,5.94 -22.29,1.27 z"
     id="path12" />
</svg>
