<?xml version="1.0" encoding="utf-8" ?><svg xmlns="http://www.w3.org/2000/svg" xmlns:xlink="http://www.w3.org/1999/xlink" width="2048" height="2048" viewBox="0 0 2048 2048"><path fill="white" d="M0 0L2048 0L2048 2048L0 2048L0 0Z"/><path fill="#3042F0" d="M1016.12 581.532C1260.39 576.971 1462.17 771.168 1466.97 1015.43C1471.76 1259.7 1277.76 1461.67 1033.5 1466.7C788.907 1471.73 586.606 1277.41 581.804 1032.81C577.002 788.215 771.519 586.1 1016.12 581.532Z"/><path fill="white" d="M997.976 647.875C1205.8 633.122 1386.24 789.63 1401.02 997.456C1415.79 1205.28 1259.3 1385.74 1051.47 1400.53C843.619 1415.32 663.135 1258.8 648.362 1050.95C633.589 843.099 790.121 662.629 997.976 647.875Z"/><path fill="#21252A" d="M1003.69 873.33C1127.29 866.769 1222.6 931.552 1297.31 1024C1294.79 1028.15 1290.72 1033.46 1287.57 1037.17C1223.47 1112.82 1146.01 1165.04 1046.23 1175.61C1025.64 1177.07 1004.95 1176.24 984.549 1173.14C892.918 1158.65 806.274 1097.93 752.362 1023.81C755.73 1019.02 760.141 1013.8 764.001 1009.3C825.406 937.704 907.512 881.074 1003.69 873.33Z"/><path fill="white" d="M1009.2 894.428C1018.74 893.861 1028.32 893.806 1037.87 894.265C1136.85 899.376 1206.82 954.404 1269.9 1024.37C1268.01 1026.65 1266.07 1028.9 1264.09 1031.11C1206.34 1095.78 1131.55 1148.81 1042.25 1153.87C1032.08 1154.57 1021.87 1154.69 1011.69 1154.23C912.748 1149.58 843.017 1094.11 779.484 1024.69C840.747 953.41 913.295 901.956 1009.2 894.428Z"/><path fill="#21252A" d="M1016.65 964.586C1049.94 960.192 1080.54 983.493 1085.16 1016.76C1089.78 1050.02 1066.69 1080.78 1033.45 1085.62C999.902 1090.51 968.786 1067.15 964.124 1033.56C959.461 999.98 983.034 969.023 1016.65 964.586Z"/></svg>